<?xml version="1.0" encoding="UTF-8" standalone="no"?>
<!-- Created with Inkscape (http://www.inkscape.org/) -->

<svg
   xmlns:dc="http://purl.org/dc/elements/1.1/"
   xmlns:cc="http://creativecommons.org/ns#"
   xmlns:rdf="http://www.w3.org/1999/02/22-rdf-syntax-ns#"
   xmlns:svg="http://www.w3.org/2000/svg"
   xmlns="http://www.w3.org/2000/svg"
   xmlns:xlink="http://www.w3.org/1999/xlink"
   xmlns:sodipodi="http://sodipodi.sourceforge.net/DTD/sodipodi-0.dtd"
   xmlns:inkscape="http://www.inkscape.org/namespaces/inkscape"
   width="816"
   height="176"
   id="svg2"
   version="1.1"
   inkscape:version="0.48.1 r9760"
   sodipodi:docname="background.rtl.svg"
   inkscape:export-filename="/srv/svn/leia/mods-features/ubiquity-slideshow-ubuntu/slideshows/lliurex/slides/link/background.rtl.png"
   inkscape:export-xdpi="90"
   inkscape:export-ydpi="90">
  <defs
     id="defs4">
    <linearGradient
       id="linearGradient3052">
      <stop
         style="stop-color:#f5f5f5;stop-opacity:1"
         offset="0"
         id="stop3054" />
      <stop
         id="stop3060"
         offset="0.55973685"
         style="stop-color:#d7d7d7;stop-opacity:1" />
      <stop
         style="stop-color:#b9b9b9;stop-opacity:1"
         offset="1"
         id="stop3056" />
    </linearGradient>
    <linearGradient
       inkscape:collect="always"
       id="linearGradient3097">
      <stop
         style="stop-color:#ffc832;stop-opacity:1"
         offset="0"
         id="stop3099" />
      <stop
         style="stop-color:#e18214;stop-opacity:1"
         offset="1"
         id="stop3101" />
    </linearGradient>
    <linearGradient
       id="linearGradient3748">
      <stop
         style="stop-color:#ffffff;stop-opacity:1;"
         offset="0"
         id="stop3750" />
      <stop
         id="stop3756"
         offset="0.5"
         style="stop-color:#ffffff;stop-opacity:0.64457834;" />
      <stop
         style="stop-color:#ffffff;stop-opacity:0;"
         offset="1"
         id="stop3752" />
    </linearGradient>
    <linearGradient
       id="linearGradient3736">
      <stop
         style="stop-color:#b88100;stop-opacity:0.44578314;"
         offset="0"
         id="stop3738" />
      <stop
         style="stop-color:#b88100;stop-opacity:0;"
         offset="1"
         id="stop3740" />
    </linearGradient>
    <linearGradient
       inkscape:collect="always"
       id="linearGradient3696">
      <stop
         style="stop-color:#ffdd8c;stop-opacity:1;"
         offset="0"
         id="stop3698" />
      <stop
         style="stop-color:#ffdd8c;stop-opacity:0;"
         offset="1"
         id="stop3700" />
    </linearGradient>
    <linearGradient
       id="linearGradient3686">
      <stop
         style="stop-color:#ffc022;stop-opacity:1;"
         offset="0"
         id="stop3688" />
      <stop
         id="stop3694"
         offset="0.5"
         style="stop-color:#efbc3b;stop-opacity:1;" />
      <stop
         style="stop-color:#9d7000;stop-opacity:1;"
         offset="1"
         id="stop3690" />
    </linearGradient>
    <inkscape:perspective
       sodipodi:type="inkscape:persp3d"
       inkscape:vp_x="0 : 526.18109 : 1"
       inkscape:vp_y="0 : 1000 : 0"
       inkscape:vp_z="744.09448 : 526.18109 : 1"
       inkscape:persp3d-origin="372.04724 : 350.78739 : 1"
       id="perspective10" />
    <inkscape:perspective
       id="perspective2619"
       inkscape:persp3d-origin="372.04724 : 350.78739 : 1"
       inkscape:vp_z="744.09448 : 526.18109 : 1"
       inkscape:vp_y="0 : 1000 : 0"
       inkscape:vp_x="0 : 526.18109 : 1"
       sodipodi:type="inkscape:persp3d" />
    <linearGradient
       gradientTransform="translate(-145.1711,-82.341691)"
       gradientUnits="userSpaceOnUse"
       y2="158.78838"
       x2="470.66516"
       y1="91.548492"
       x1="472.81628"
       id="linearGradient4240"
       xlink:href="#linearGradient4242"
       inkscape:collect="always" />
    <linearGradient
       id="linearGradient4242">
      <stop
         style="stop-color:#ffffff;stop-opacity:1;"
         offset="0"
         id="stop4244" />
      <stop
         id="stop4246"
         offset="0.19679277"
         style="stop-color:#c1e3f9;stop-opacity:1;" />
      <stop
         style="stop-color:#7fc3ee;stop-opacity:1;"
         offset="0.51587588"
         id="stop4248" />
      <stop
         style="stop-color:#b3ffff;stop-opacity:1;"
         offset="0.8551569"
         id="stop4250" />
      <stop
         id="stop4252"
         offset="1"
         style="stop-color:#61b5f4;stop-opacity:1;" />
    </linearGradient>
    <linearGradient
       gradientTransform="translate(-145.1711,-82.341691)"
       gradientUnits="userSpaceOnUse"
       y2="158.78838"
       x2="465.81284"
       y1="91.548492"
       x1="468.61615"
       id="linearGradient4268"
       xlink:href="#linearGradient4254"
       inkscape:collect="always" />
    <linearGradient
       id="linearGradient4254">
      <stop
         id="stop4256"
         offset="0"
         style="stop-color:#7ab3df;stop-opacity:1;" />
      <stop
         id="stop4258"
         offset="1"
         style="stop-color:#d6f6f6;stop-opacity:1;" />
    </linearGradient>
    <linearGradient
       gradientTransform="translate(-145.1711,-82.341691)"
       y2="153.62402"
       x2="306.74979"
       y1="103.28781"
       x1="306.74979"
       gradientUnits="userSpaceOnUse"
       id="linearGradient4480"
       xlink:href="#linearGradient4164"
       inkscape:collect="always" />
    <linearGradient
       id="linearGradient4164">
      <stop
         id="stop4166"
         offset="0"
         style="stop-color:#ffffff;stop-opacity:1;" />
      <stop
         style="stop-color:#1966a6;stop-opacity:1;"
         offset="0.28696385"
         id="stop4168" />
      <stop
         id="stop4172"
         offset="0.61420608"
         style="stop-color:#155487;stop-opacity:1;" />
      <stop
         style="stop-color:#00a1d0;stop-opacity:1;"
         offset="0.85838509"
         id="stop4174" />
      <stop
         style="stop-color:#00c5ff;stop-opacity:1;"
         offset="1"
         id="stop4170" />
    </linearGradient>
    <linearGradient
       gradientTransform="translate(-145.1711,-82.341691)"
       y2="153.62402"
       x2="306.74979"
       y1="103.28781"
       x1="306.74979"
       gradientUnits="userSpaceOnUse"
       id="linearGradient4483"
       xlink:href="#linearGradient4164"
       inkscape:collect="always" />
    <linearGradient
       gradientTransform="translate(-145.1711,-82.341691)"
       y2="153.62402"
       x2="306.74979"
       y1="103.28781"
       x1="306.74979"
       gradientUnits="userSpaceOnUse"
       id="linearGradient4486"
       xlink:href="#linearGradient4164"
       inkscape:collect="always" />
    <linearGradient
       gradientTransform="translate(-145.1711,-82.341691)"
       y2="153.62402"
       x2="306.74979"
       y1="103.28781"
       x1="306.74979"
       gradientUnits="userSpaceOnUse"
       id="linearGradient4489"
       xlink:href="#linearGradient4164"
       inkscape:collect="always" />
    <linearGradient
       gradientTransform="translate(-145.1711,-82.341691)"
       y2="153.62402"
       x2="306.74979"
       y1="103.28781"
       x1="306.74979"
       gradientUnits="userSpaceOnUse"
       id="linearGradient4492"
       xlink:href="#linearGradient4164"
       inkscape:collect="always" />
    <linearGradient
       gradientTransform="translate(-145.1711,-82.341691)"
       y2="153.62402"
       x2="306.74979"
       y1="103.28781"
       x1="306.74979"
       gradientUnits="userSpaceOnUse"
       id="linearGradient4495"
       xlink:href="#linearGradient4164"
       inkscape:collect="always" />
    <linearGradient
       gradientTransform="translate(-145.1711,-82.341691)"
       gradientUnits="userSpaceOnUse"
       y2="166.78345"
       x2="465.5025"
       y1="98.75563"
       x1="465.07224"
       id="linearGradient4196"
       xlink:href="#linearGradient4222"
       inkscape:collect="always" />
    <linearGradient
       id="linearGradient4222">
      <stop
         style="stop-color:#ffffff;stop-opacity:1;"
         offset="0"
         id="stop4224" />
      <stop
         id="stop4226"
         offset="0.19207773"
         style="stop-color:#c1e3f9;stop-opacity:1;" />
      <stop
         style="stop-color:#7fc3ee;stop-opacity:1;"
         offset="0.52396899"
         id="stop4228" />
      <stop
         style="stop-color:#b3ffff;stop-opacity:1;"
         offset="0.7541467"
         id="stop4230" />
      <stop
         id="stop4232"
         offset="1"
         style="stop-color:#61b5f4;stop-opacity:1;" />
    </linearGradient>
    <linearGradient
       gradientTransform="translate(-145.1711,-82.341691)"
       gradientUnits="userSpaceOnUse"
       y2="166.78345"
       x2="459.79474"
       y1="98.75563"
       x1="460.00638"
       id="linearGradient4270"
       xlink:href="#linearGradient4254"
       inkscape:collect="always" />
    <linearGradient
       inkscape:collect="always"
       xlink:href="#linearGradient3686"
       id="linearGradient3692"
       x1="602.85718"
       y1="1052.3622"
       x2="602.85712"
       y2="876.36218"
       gradientUnits="userSpaceOnUse"
       gradientTransform="translate(0,-184)" />
    <linearGradient
       inkscape:collect="always"
       xlink:href="#linearGradient3696"
       id="linearGradient3702"
       x1="0"
       y1="940.19067"
       x2="794.28571"
       y2="940.19067"
       gradientUnits="userSpaceOnUse"
       gradientTransform="translate(0,-184)" />
    <inkscape:perspective
       id="perspective3714"
       inkscape:persp3d-origin="0.5 : 0.33333333 : 1"
       inkscape:vp_z="1 : 0.5 : 1"
       inkscape:vp_y="0 : 1000 : 0"
       inkscape:vp_x="0 : 0.5 : 1"
       sodipodi:type="inkscape:persp3d" />
    <linearGradient
       inkscape:collect="always"
       xlink:href="#linearGradient3736"
       id="linearGradient3742"
       x1="8.3955221"
       y1="631.90686"
       x2="780.57202"
       y2="604.28693"
       gradientUnits="userSpaceOnUse"
       gradientTransform="translate(0,-110.69473)" />
    <radialGradient
       inkscape:collect="always"
       xlink:href="#linearGradient3748"
       id="radialGradient3754"
       cx="665.04425"
       cy="-29.39823"
       fx="665.04425"
       fy="-29.39823"
       r="85.714287"
       gradientUnits="userSpaceOnUse"
       gradientTransform="matrix(-0.00884984,-0.92035364,1.0119422,-0.00973074,700.67911,582.39157)" />
    <radialGradient
       inkscape:collect="always"
       xlink:href="#linearGradient3097"
       id="radialGradient3103"
       cx="-594.70691"
       cy="2177.7705"
       fx="-594.70691"
       fy="2177.7705"
       r="408"
       gradientTransform="matrix(0.23577941,0.2107181,-0.18006038,0.20147069,660.81524,632.56397)"
       gradientUnits="userSpaceOnUse" />
    <filter
       inkscape:collect="always"
       id="filter3905">
      <feGaussianBlur
         inkscape:collect="always"
         stdDeviation="4.8857143"
         id="feGaussianBlur3907" />
    </filter>
    <filter
       inkscape:collect="always"
       id="filter3963">
      <feGaussianBlur
         inkscape:collect="always"
         stdDeviation="3.2571428"
         id="feGaussianBlur3965" />
    </filter>
    <clipPath
       clipPathUnits="userSpaceOnUse"
       id="clipPath3979">
      <path
         style="fill:#ff919b;stroke:none"
         d="m 438.40897,1091.7694 0,277.7813 501.03125,0 0,-277.7813 -501.03125,0 z m 244.125,53.3438 c 44.97178,0 81.40625,36.4657 81.40625,81.4375 0,44.9718 -36.43447,81.4062 -81.40625,81.4062 -44.9717,0 -81.4375,-36.4344 -81.4375,-81.4062 0,-44.9718 36.4658,-81.4375 81.4375,-81.4375 z"
         id="path3981"
         inkscape:connector-curvature="0" />
    </clipPath>
    <linearGradient
       inkscape:collect="always"
       xlink:href="#linearGradient3052"
       id="linearGradient3058"
       x1="549.52301"
       y1="2.2537594"
       x2="549.52295"
       y2="172.96954"
       gradientUnits="userSpaceOnUse"
       gradientTransform="matrix(-1,0,0,1,816,876.36218)" />
  </defs>
  <sodipodi:namedview
     id="base"
     pagecolor="#ffffff"
     bordercolor="#666666"
     borderopacity="1.0"
     inkscape:pageopacity="0.0"
     inkscape:pageshadow="2"
     inkscape:zoom="0.7"
     inkscape:cx="122.75423"
     inkscape:cy="281.98515"
     inkscape:document-units="px"
     inkscape:current-layer="layer1"
     showgrid="false"
     inkscape:window-width="1280"
     inkscape:window-height="961"
     inkscape:window-x="0"
     inkscape:window-y="0"
     inkscape:window-maximized="1"
     inkscape:showpageshadow="false" />
  <metadata
     id="metadata7">
    <rdf:RDF>
      <cc:Work
         rdf:about="">
        <dc:format>image/svg+xml</dc:format>
        <dc:type
           rdf:resource="http://purl.org/dc/dcmitype/StillImage" />
        <dc:title></dc:title>
      </cc:Work>
    </rdf:RDF>
  </metadata>
  <g
     inkscape:label="Capa 1"
     inkscape:groupmode="layer"
     id="layer1"
     transform="translate(0,-876.36218)">
    <rect
       style="fill:url(#radialGradient3103);fill-opacity:1;stroke:none"
       id="rect3095"
       x="0"
       y="876.36218"
       height="176"
       width="816" />
    <path
       inkscape:connector-curvature="0"
       style="fill:none;stroke:#000000;stroke-width:4;stroke-miterlimit:4;stroke-opacity:1;stroke-dasharray:none;filter:url(#filter3905)"
       d="m 756.52431,965.14678 c 0,44.97182 -36.4568,81.42862 -81.42859,81.42862 -44.9717,0 -81.4285,-36.4568 -81.4285,-81.42862 0,-44.97177 36.4568,-81.42858 81.4285,-81.42858 44.97179,0 81.42859,36.45681 81.42859,81.42858 z"
       id="path3071-1" />
    <path
       style="fill:url(#linearGradient3058);fill-opacity:1;stroke:none"
       d="m 816,876.36218 0,176.00002 -816,0 0,-176.00002 816,0 z m -675,7.4375 c -44.97176,0 -81.4375,36.43449 -81.4375,81.40625 0,44.97177 36.46574,81.43747 81.4375,81.43747 44.97176,0 81.4375,-36.4657 81.4375,-81.43747 0,-44.97176 -36.46574,-81.40625 -81.4375,-81.40625 z"
       id="rect3069"
       inkscape:connector-curvature="0" />
    <path
       sodipodi:type="arc"
       style="fill:url(#radialGradient3754);fill-opacity:1;fill-rule:nonzero;stroke:none"
       id="path3746"
       sodipodi:cx="664.28571"
       sodipodi:cy="-22.571428"
       sodipodi:rx="85.714287"
       sodipodi:ry="85.714287"
       d="m 749.99999,-22.571428 c 0,47.338693 -38.37559,85.714287 -85.71428,85.714287 -47.3387,0 -85.71429,-38.375594 -85.71429,-85.714287 0,-47.338694 38.37559,-85.714292 85.71429,-85.714292 47.33869,0 85.71428,38.375598 85.71428,85.714292 z"
       transform="matrix(1.4130712,0,0,1.4130712,-262.26385,793.81633)" />
    <path
       style="fill:#414141;fill-opacity:1;fill-rule:evenodd;stroke:none"
       d="m 784.37869,896.9577 -42.74361,4.94295 -24.21762,23.34535 -18.73408,-18.69268 -8.97241,0.70601 -27.04211,2.11847 c -0.47158,0.0382 -0.94021,0.0849 -1.41223,0.12316 -2.43669,0.33166 -17.02896,0.67607 -25.75422,0.91389 -0.087,23.56214 -0.1635,47.13766 -0.24929,70.6998 l 24.9652,0.24906 38.13275,2.57563 19.31566,-19.56516 24.25883,24.25903 c 0.6508,0.58053 1.16146,0.95699 1.74474,1.24619 14.60417,0.1338 28.86945,2.5763 43.2838,4.6939 l -49.88868,-49.76385 47.31327,-47.85344 z m -475.37441,10.38467 0.24929,76.34896 57.9888,-3.07376 0.24907,-20.72811 -29.24358,0 -0.49834,-51.55019 -28.74524,-0.9969 z m 62.64129,2.57539 0,70.69981 32.64963,-1.57849 24.84061,-0.49835 0.24907,-18.15271 -29.24358,-0.24927 0.24907,-48.14392 -28.7448,-2.07707 z m 245.12276,1.16317 c -5.07883,0.0574 -10.4817,0.0914 -15.61871,0.37393 -14.36549,0.38773 -28.71146,0.62256 -43.07633,1.03853 0.087,21.83564 0.16349,43.6713 0.24928,65.50737 l 27.99739,0 c 0.17199,-6.29997 0.32572,-12.60036 0.49856,-18.90055 5.28035,6.80024 10.46236,13.65207 15.86778,20.35419 9.12211,-0.17199 18.25334,0.3769 27.37461,0.37393 -5.95536,-9.23465 -11.90689,-18.47185 -17.86181,-27.70671 8.10566,-0.11257 14.0659,-7.62111 15.49385,-15.07873 2.33059,-7.8239 0.93108,-16.80438 -4.07088,-23.30331 -2.0297,-1.52456 -4.18596,-2.54101 -6.85374,-2.65865 z m -153.73669,1.66153 -28.70339,0.29089 -0.78946,64.46885 29.49285,0.24907 0,-65.00881 z m 56.9919,0 c -0.10827,15.25221 0.4198,38.17076 -1.2464,44.36393 -1.66597,6.19317 -15.88262,7.88951 -17.32184,-0.78924 -1.43899,-8.67855 -0.29132,-28.69215 -0.58136,-43.03473 l -27.70671,0 c -0.0489,12.40162 -0.11674,26.17557 -0.2495,37.21931 -0.13165,11.04352 1.69189,20.9398 9.8035,27.24954 18.07584,0 36.16527,0.11889 54.20863,-0.41532 9.25927,-3.80271 10.92482,-14.30797 10.92482,-23.38655 0,-9.07837 0.12316,-21.42776 0.12316,-40.66698 l -27.95599,-0.53996 z M 585.78,922.87804 c 3.8182,0.0913 7.69478,-0.0764 10.67554,0.66483 2.62892,1.69018 4.45351,5.32916 5.0678,8.72312 0.23548,3.55916 -1.16975,6.55265 -3.86301,8.47385 -3.70226,0.83512 -7.77845,0.59731 -11.63084,0.49857 -0.1359,-0.59984 -0.1635,-12.24025 -0.24949,-18.36037 z m 77.9274,1.28759 14.04021,0.29091 9.55399,9.55421 -23.5942,0.49835 0,-10.34347 z m 23.8437,10.09419 10.05234,10.05256 -10.05234,9.72004 0,-19.7726 z m -24.09299,20.18793 c 7.79141,0.0849 15.59535,0.16562 23.38676,0.2495 l -10.05256,9.72004 -12.83563,0.37371 -0.49857,-10.34325 z"
       id="path3214-7-8-1"
       inkscape:connector-curvature="0" />
    <path
       inkscape:connector-curvature="0"
       style="fill:#414141;fill-opacity:1;stroke:none;display:inline"
       d="m 708.72886,998.31316 -15.16344,17.77354 8.16496,28.8834 0.81068,-7.1432 48.93196,0 12.44182,-32.143 -56.53022,0 1.34424,-7.37074 z m 59.9012,7.37074 -12.44582,32.143 11.13474,0 12.44181,-32.143 -11.13073,0 z m 16.11065,0 -12.44582,32.143 5.70793,0 12.44182,-32.143 -5.70393,0 z m 10.41515,0 -12.44608,32.143 2.67611,0 12.446,-32.143 -2.67603,0 z m -59.68602,6.407 c 1.7946,-0.015 3.12831,0.015 3.99973,0.029 0.87646,0.026 1.48093,0.2658 1.81166,0.7158 0.33951,0.4426 0.40268,1.415 0.19447,2.9199 -0.19943,1.4981 -0.47935,3.0607 -0.83966,4.6907 -0.35492,1.6299 -0.69827,3.029 -1.03413,4.1941 -0.32716,1.1583 -0.6357,2.1691 -0.9265,3.036 -0.29096,0.8669 -0.58575,1.4974 -0.88516,1.8862 -0.29636,0.3816 -0.66946,0.7244 -1.11679,1.0299 -0.43862,0.2985 -0.90231,0.4583 -1.38974,0.4798 -0.48474,0.028 -1.78086,0.031 -3.8881,0.015 -2.10958,-0.017 -3.53256,-0.026 -4.26868,-0.025 -0.73028,0 -1.19092,-0.1517 -1.38156,-0.4633 -0.18734,-0.3181 -0.26426,-0.6628 -0.22745,-1.0299 0.0461,-0.3739 0.0991,-0.6116 0.15723,-0.7154 l 0,0 c 0.89848,-2.5225 1.47762,-4.2037 1.73309,-5.0422 0.25842,-0.8454 0.50962,-1.7922 0.761,-2.8457 0.25129,-1.0534 0.51345,-2.4234 0.78597,-4.1073 0.27791,-1.6842 0.47421,-2.7439 0.58724,-3.1808 0.11616,-0.4436 0.3611,-0.7999 0.73637,-1.0713 0.38077,-0.2712 0.8923,-0.4213 1.53453,-0.4508 0.64206,-0.029 1.86213,-0.05 3.65648,-0.054 l 0,0 z m 15.64322,0.1533 c 0.72819,-0.015 1.44351,0.036 2.14265,0.1316 0.93276,0.1285 1.56228,0.4854 1.89023,1.0672 0.3369,0.5751 0.47978,1.3758 0.42609,2.4033 -0.0513,1.0202 -0.1648,1.8728 -0.33508,2.5602 -0.16723,0.6804 -0.45629,1.4957 -0.87281,2.4405 -0.41121,0.9446 -0.86994,1.7607 -1.37312,2.4486 -0.49405,0.681 -2.75852,3.2847 -6.79601,7.8135 l -0.0322,-0.074 0,0 -4.20237,0.015 5.68731,-6.3946 c -1.67993,-0.094 -2.86215,-0.2647 -3.54884,-0.513 -0.68356,-0.255 -1.10644,-0.8497 -1.26575,-1.7785 -0.1561,-0.9357 -0.13783,-1.9484 0.0539,-3.0443 0.19508,-1.1028 0.70305,-2.289 1.52209,-3.553 0.82513,-1.2644 1.78243,-2.1449 2.87059,-2.6473 1.09712,-0.5094 2.13186,-0.7924 3.10638,-0.8438 0.24581,-0.015 0.48935,-0.022 0.7322,-0.025 l -1.7e-4,0 z m -29.94221,0.025 c -0.15027,0.8799 -0.38172,2.0775 -0.69087,3.5945 -0.30036,1.5101 -0.63579,2.9165 -1.00515,4.2188 -0.36353,1.3024 -0.72306,2.6301 -1.08373,3.9875 -0.36057,1.3572 -1.10373,3.7202 -2.22513,7.0853 l -3.80544,0.015 c 0.64345,-1.9589 1.12158,-3.4493 1.43525,-4.467 0.31368,-1.0178 0.66868,-2.1905 1.06711,-3.5201 0.39833,-1.3295 0.83948,-3.0828 1.32779,-5.2572 l -5.34814,5.0588 c 0.40425,-2.1872 0.65667,-3.5921 0.75282,-4.2148 0.096,-0.6231 0.16601,-0.9349 0.21091,-0.9349 l 5.81974,-5.5592 3.54484,-0.015 0,0 z m -11.1102,0.029 c -0.15018,0.8791 -0.37789,2.0784 -0.68652,3.5944 -0.29984,1.5089 -0.63631,2.9135 -1.00515,4.2149 -0.36292,1.3013 -0.72367,2.6308 -1.08364,3.9873 -0.35996,1.3562 -1.10147,3.7144 -2.22122,7.0771 l -3.80117,0.015 c 0.64223,-1.9576 1.12201,-3.4459 1.43525,-4.4629 0.31324,-1.0171 0.66938,-2.1873 1.06711,-3.5159 0.39772,-1.3285 0.84044,-3.0802 1.32779,-5.2531 l -5.34406,5.0504 c 0.40374,-2.1856 0.65259,-3.5882 0.74873,-4.2108 0.096,-0.6222 0.16628,-0.9347 0.21083,-0.9347 l 5.81157,-5.5549 3.54048,-0.015 0,0 z m 25.75662,3.2263 c -0.56,0 -1.24252,0.036 -2.04328,0.099 -1.8e-4,0 -0.16741,0.015 -0.4964,0.034 -0.32699,0.015 -0.56218,0.5949 -0.71149,1.7456 -0.14862,1.1504 -0.34117,2.1543 -0.57489,3.0071 -0.22805,0.8526 0.0174,1.0188 0.73212,0.5046 0.72437,-0.5213 1.80122,-1.2969 3.23029,-2.333 1.43838,-1.0431 2.03841,-1.9269 1.80765,-2.6471 -0.0661,-0.281 -0.71192,-0.4165 -1.944,-0.4095 l 0,-2e-4 z m 14.05501,0.1316 c -0.97,0 -1.76946,0.4524 -2.39908,1.3774 -0.66824,0.9796 -0.99654,1.7777 -0.98862,2.3947 0.0174,0.6104 0.18812,1.0105 0.51711,1.2038 0.33456,0.1934 0.94216,0.3051 1.81993,0.3309 0.88081,0.019 1.49189,-0.1909 1.83654,-0.6287 0.34761,-0.4447 0.60569,-1.3164 0.761,-2.614 0.16254,-1.3048 -0.28627,-1.9891 -1.34841,-2.0557 -0.0661,0 -0.13313,0 -0.19847,-0.015 l 0,0 z m -13.51328,5.9727 c -0.16027,0.022 -0.40956,0.1758 -0.74438,0.4551 -0.87498,0.7294 -1.90137,1.4786 -3.08159,2.25 -1.17134,0.7645 -1.99203,1.7458 -2.46102,2.9452 0.15175,0.4706 1.50912,0.6066 4.07412,0.4011 0,0 0.19526,-0.045 0.57915,-0.1362 0.38955,-0.09 0.69357,-0.6943 0.91405,-1.8033 0.22945,-1.1164 0.4984,-2.1875 0.81069,-3.214 0.17889,-0.5774 0.16976,-0.8757 -0.0296,-0.8976 -0.02,0 -0.0383,0 -0.0618,0 z m -11.89573,5.431 c -0.35579,1.6694 -0.76257,3.0156 -1.22025,4.0411 l -4.1446,0 c 0.45037,-1.0182 0.90578,-2.3638 1.35676,-4.0327 l 4.00809,-0.017 0,0 z"
       id="rect3683-7-4-7-2"
       sodipodi:nodetypes="cccccccccccccccccccccccccccccsccccccccccscccccccccccccccccccccccccccccsccssccscccccccsccssccscccccscscccccccccccccccccscccccccccccccc"
       inkscape:export-filename="/home/quique/.themes/lliurex-window/metacity-1/btntop_2.png"
       inkscape:export-xdpi="94.48584"
       inkscape:export-ydpi="94.48584" />
    <path
       inkscape:connector-curvature="0"
       style="fill:#414141;fill-opacity:1;stroke:none;display:inline"
       d="m 309.01942,998.19146 -18.36406,46.89254 407.02786,0 -8.02948,-29.1163 14.3726,-17.77624 z"
       id="rect2858-7-4-1-1-1"
       sodipodi:nodetypes="cccccc"
       inkscape:export-xdpi="94.48584"
       inkscape:export-ydpi="94.48584"
       inkscape:export-filename="/home/quique/.themes/lliurex-window/metacity-1/btntop_2.png" />
    <path
       inkscape:connector-curvature="0"
       style="fill:none;stroke:#f5f5f5;stroke-width:4;stroke-miterlimit:4;stroke-opacity:1;stroke-dasharray:none;filter:url(#filter3963)"
       d="m 763.28151,1226.1084 c 0,44.9718 -36.4568,81.4286 -81.42858,81.4286 -44.9717,0 -81.4285,-36.4568 -81.4285,-81.4286 0,-44.9718 36.4568,-81.4286 81.4285,-81.4286 44.97178,0 81.42858,36.4568 81.42858,81.4286 z"
       id="path3071-1-6-7"
       clip-path="url(#clipPath3979)"
       transform="translate(-541.47968,-261.42857)" />
  </g>
</svg>
